<svg width="26" height="28" viewBox="0 0 26 28" fill="none" xmlns="http://www.w3.org/2000/svg">
<path d="M10.1875 7.74875H8.3125V3.99875C8.31253 3.8444 8.35066 3.69245 8.42352 3.55638C8.49638 3.42031 8.60171 3.30434 8.73016 3.21875L12.9489 0.40625L13.9886 1.96625L10.1875 4.50031V7.74875Z" fill="#F9E109"/>
<path d="M13.9891 1.96715L10.1875 4.4984V7.74684H8.3125V3.99684C8.31254 3.8428 8.35064 3.69117 8.42343 3.55541C8.49621 3.41966 8.60142 3.304 8.72969 3.21871L9.20312 2.89996C9.58063 3.02465 9.98237 3.0578 10.3752 2.99667C10.768 2.93554 11.1407 2.7819 11.4625 2.5484L13.4266 1.11871L13.9891 1.96715Z" fill="#FCBC04"/>
<path d="M14.4062 27.5938H4.09375L2.21875 11.1875H16.2812L14.4062 27.5938Z" fill="#F8664F"/>
<path d="M3.15625 9.3125H15.3438C15.5924 9.3125 15.8308 9.41127 16.0067 9.58709C16.1825 9.7629 16.2812 10.0014 16.2812 10.25V11.1875H2.21875V10.25C2.21875 10.0014 2.31752 9.7629 2.49334 9.58709C2.66915 9.41127 2.90761 9.3125 3.15625 9.3125Z" fill="#84D2F4"/>
<path d="M5.5 7.4375H13C13.2486 7.4375 13.4871 7.53627 13.6629 7.71209C13.8387 7.8879 13.9375 8.12636 13.9375 8.375V9.3125H4.5625V8.375C4.5625 8.12636 4.66127 7.8879 4.83709 7.71209C5.0129 7.53627 5.25136 7.4375 5.5 7.4375Z" fill="#84D2F4"/>
<path d="M16.1219 12.5938H5.5C8.20226 15.2957 11.782 16.9418 15.5922 17.2344L14.4062 27.5938H4.09375L2.21875 11.1875H16.2812L16.1219 12.5938Z" fill="#CC5144"/>
<path d="M16.2812 10.25V11.1875H2.21875V10.25C2.21949 10.0016 2.3185 9.76356 2.49416 9.58791C2.66981 9.41225 2.90784 9.31324 3.15625 9.3125C3.15699 9.56091 3.256 9.79894 3.43166 9.97459C3.60731 10.1502 3.84534 10.2493 4.09375 10.25H16.2812Z" fill="#57B7EB"/>
<path d="M13.9375 8.375V9.3125H4.5625V8.375C4.56324 8.12659 4.66225 7.88856 4.83791 7.71291C5.01356 7.53725 5.25159 7.43824 5.5 7.4375C5.50074 7.68591 5.59975 7.92394 5.77541 8.09959C5.95106 8.27525 6.18909 8.37426 6.4375 8.375H13.9375Z" fill="#57B7EB"/>
<path d="M19.0938 9.78125L18.1562 21.5L17.6875 26.6562L20.0312 27.125L21.4375 10.25L20.0312 9.5L19.0938 9.78125Z" fill="#E59730"/>
<path d="M16.2812 12.125L17.2188 23.375H20.0312L19.0938 11.6562L17.6875 10.25L16.2812 12.125Z" fill="#FCBC04"/>
<path d="M20.0312 23.375H17.2188L16.2812 12.125L16.8344 11.389L17.6875 18.2187H18.1562L18.6672 15.2375L19.0938 14.9375L19.3797 15.2234L20.0312 23.375Z" fill="#E59730"/>
<path d="M15.3438 13.5313L13.9548 13.0541L13.4688 14.4688L15.8125 21.9688L18.0002 21.0313L15.3438 13.5313Z" fill="#F9E109"/>
<path d="M18.0016 21.0312L15.8125 21.9688L13.4688 14.4688L13.9469 13.0859L14.8047 15.6641C15.3051 17.1691 16.2257 18.4996 17.4578 19.4984L18.0016 21.0312Z" fill="#FCBC04"/>
<path d="M23.7816 10.25L21.8696 19.1562H23.7816L25.1879 12.5938L23.7816 10.25Z" fill="#F9E109"/>
<path d="M23.7104 14.6211L24.4604 11.3783L23.7816 10.25L21.8696 19.1562H23.7816L24.4205 16.1755C24.1479 16.0303 23.9306 15.7995 23.8022 15.5185C23.6739 15.2376 23.6416 14.9222 23.7104 14.6211Z" fill="#FCBC04"/>
<path d="M10.6562 13.0625L13.9375 21.9688L15.8125 21.5L12.5312 13.0625H10.6562Z" fill="#F9E109"/>
<path d="M10.6562 13.0625L13.9375 21.9688L14.875 21.7344L11.5272 13.0625H10.6562Z" fill="#FCBC04"/>
<path d="M20.9688 11.6562L19.5625 22.9062L21.4375 22.4375L23.3125 12.5938L20.9688 11.6562Z" fill="#F9E109"/>
<path d="M22.2438 18.2047L21.4375 22.4375L19.5625 22.9062L20.9688 11.6562L21.8781 12.0219L21.5031 17.2859C21.4885 17.5041 21.5566 17.7198 21.6939 17.8901C21.8311 18.0603 22.0274 18.1727 22.2438 18.2047Z" fill="#FCBC04"/>
<path d="M20.5 23.375H18.625L19.0938 14.9375L20.9688 15.4062L20.5 23.375Z" fill="#F9E109"/>
<path d="M19.9056 18.9533L20.0116 15.1672L19.0937 14.9375L18.625 23.375H20.5L20.6842 20.2466C20.4449 20.1273 20.2446 19.9423 20.1067 19.7133C19.9688 19.4842 19.899 19.2206 19.9056 18.9533Z" fill="#FCBC04"/>
<path d="M22.8438 17.2812C22.8438 19.0934 20.9552 20.5625 18.625 20.5625C16.2948 20.5625 14.4062 19.0934 14.4062 17.2812H12.0625L13.4688 27.5938H23.7812L25.1875 17.2812H22.8438Z" fill="#84D2F4"/>
<path d="M24.0391 25.7188L23.7812 27.5938H13.4688L12.0625 17.2812H14.4062C14.4144 17.6779 14.5049 18.0686 14.6719 18.4284C14.8389 18.7883 15.0789 19.1096 15.3766 19.3719C15.6509 21.1403 16.5488 22.7522 17.908 23.9162C19.2672 25.0803 20.998 25.7196 22.7875 25.7188H24.0391Z" fill="#57B7EB"/>
<path d="M18.625 25.7188C19.4017 25.7188 20.0312 25.0892 20.0312 24.3125C20.0312 23.5358 19.4017 22.9062 18.625 22.9062C17.8483 22.9062 17.2188 23.5358 17.2188 24.3125C17.2188 25.0892 17.8483 25.7188 18.625 25.7188Z" fill="#F9E109"/>
<path d="M19.7921 25.0953C19.6241 25.3453 19.3802 25.5348 19.0964 25.6358C18.8126 25.7368 18.5038 25.744 18.2156 25.6563C17.9274 25.5686 17.675 25.3908 17.4955 25.1488C17.316 24.9069 17.219 24.6137 17.2186 24.3125C17.2177 24.0255 17.3062 23.7453 17.4718 23.5109C18.1381 24.1809 18.9255 24.7185 19.7921 25.0953Z" fill="#FCBC04"/>
<path d="M12.0625 22.9062H3.625C3.12772 22.9062 2.65081 22.7087 2.29917 22.3571C1.94754 22.0054 1.75 21.5285 1.75 21.0312C1.75 20.534 1.94754 20.0571 2.29917 19.7054C2.65081 19.3538 3.12772 19.1562 3.625 19.1562H12.0625C12.5598 19.1562 13.0367 19.3538 13.3883 19.7054C13.74 20.0571 13.9375 20.534 13.9375 21.0312C13.9375 21.5285 13.74 22.0054 13.3883 22.3571C13.0367 22.7087 12.5598 22.9062 12.0625 22.9062Z" fill="#F89C8D"/>
<path d="M13 21.9688C13.2654 21.9685 13.5276 21.911 13.7687 21.8C13.6782 22.0081 13.5494 22.1973 13.389 22.3578C13.0364 22.7083 12.5596 22.9054 12.0625 22.9063H3.62495C3.2539 22.9066 2.8911 22.7968 2.58248 22.5907C2.27387 22.3847 2.03332 22.0918 1.89128 21.749C1.74925 21.4062 1.71211 21.029 1.78458 20.6651C1.85705 20.3011 2.03587 19.9669 2.29839 19.7047C2.45891 19.5443 2.64813 19.4155 2.8562 19.325C3.09731 19.214 3.35954 19.1565 3.62495 19.1562H12.0625C12.5182 19.1569 12.9581 19.3235 13.3 19.625C13.5333 19.8266 13.7109 20.0849 13.8156 20.375C13.7298 20.5298 13.6041 20.6588 13.4516 20.7486C13.2991 20.8385 13.1254 20.8859 12.9484 20.8859C12.794 20.8859 12.6417 20.8506 12.5031 20.7828C12.3665 20.7135 12.2156 20.6774 12.0625 20.6774C11.9093 20.6774 11.7584 20.7135 11.6218 20.7828L10.6281 21.2797C10.4915 21.349 10.3406 21.3852 10.1875 21.3852C10.0343 21.3852 9.88336 21.349 9.74683 21.2797L8.75308 20.7828C8.61655 20.7135 8.46558 20.6774 8.31245 20.6774C8.15932 20.6774 8.00836 20.7135 7.87183 20.7828L6.87808 21.2797C6.74155 21.349 6.59058 21.3852 6.43745 21.3852C6.28432 21.3852 6.13336 21.349 5.99683 21.2797L5.00308 20.7828C4.86654 20.7135 4.71558 20.6774 4.56245 20.6774C4.40932 20.6774 4.25836 20.7135 4.12183 20.7828L3.36714 21.1625C3.28001 21.2043 3.18894 21.2373 3.09526 21.261C3.27047 21.4821 3.4935 21.6607 3.74761 21.7833C4.00173 21.9059 4.28031 21.9693 4.56245 21.9688H13Z" fill="#F8664F"/>
<path d="M0.8125 24.7812H14.875V25.7188C14.875 26.216 14.6775 26.6929 14.3258 27.0446C13.9742 27.3962 13.4973 27.5938 13 27.5938H2.6875C2.19022 27.5938 1.71331 27.3962 1.36167 27.0446C1.01004 26.6929 0.8125 26.216 0.8125 25.7188V24.7812Z" fill="#FCBC04"/>
<path d="M9.15616 24.7812L8.78116 25.25L8.40616 24.7812H9.15616Z" fill="#E59730"/>
<path d="M9.15616 24.7812L8.78116 25.25L8.40616 24.7812H9.15616Z" fill="#E59730"/>
<path d="M13 24.7812H2.6875C2.43886 24.7812 2.2004 24.6825 2.02459 24.5067C1.84877 24.3308 1.75 24.0924 1.75 23.8438C1.75 23.5951 1.84877 23.3567 2.02459 23.1808C2.2004 23.005 2.43886 22.9062 2.6875 22.9062H13C13.2486 22.9062 13.4871 23.005 13.6629 23.1808C13.8387 23.3567 13.9375 23.5951 13.9375 23.8438C13.9375 24.0924 13.8387 24.3308 13.6629 24.5067C13.4871 24.6825 13.2486 24.7812 13 24.7812Z" fill="#CC5144"/>
<path d="M9.25 25.25L7.375 22.9062H11.125L9.25 25.25Z" fill="#F7F754"/>
<path d="M9.08922 23.4087L8.6875 22.9062H7.375L9.25 25.25L10.3117 23.923C10.0813 23.9455 9.84884 23.9103 9.6354 23.8205C9.42197 23.7308 9.23426 23.5892 9.08922 23.4087Z" fill="#F9E109"/>
<path d="M1.28125 19.1562C1.28118 19.438 1.35961 19.7141 1.50774 19.9537C1.65586 20.1933 1.86783 20.3869 2.11985 20.5128L2.47797 20.6919C2.68854 20.7973 2.92077 20.8522 3.15626 20.8522C3.39174 20.8522 3.62398 20.7973 3.83454 20.6919L4.58876 20.3169C4.72617 20.2482 4.87766 20.2125 5.03126 20.2125C5.18486 20.2125 5.33636 20.2482 5.47376 20.3169L6.46377 20.8119C6.60117 20.8805 6.75267 20.9163 6.90627 20.9163C7.05987 20.9163 7.21137 20.8805 7.34877 20.8119L8.33877 20.3169C8.47618 20.2482 8.62767 20.2125 8.78128 20.2125C8.93488 20.2125 9.08637 20.2482 9.22378 20.3169L10.2138 20.8119C10.3512 20.8805 10.5027 20.9163 10.6563 20.9163C10.8099 20.9163 10.9614 20.8805 11.0988 20.8119L12.0888 20.3169C12.2262 20.2482 12.3777 20.2125 12.5313 20.2125C12.6849 20.2125 12.8364 20.2482 12.9738 20.3169C13.1248 20.3923 13.2926 20.4279 13.4613 20.4202C13.63 20.4126 13.7939 20.3619 13.9374 20.273C14.081 20.1841 14.1994 20.06 14.2815 19.9125C14.3635 19.7649 14.4065 19.5988 14.4063 19.43V19.1562H1.28125Z" fill="#C4F236"/>
<path d="M10.1875 14.4688H5.5C4.2568 14.4688 3.06451 14.9626 2.18544 15.8417C1.30636 16.7208 0.8125 17.913 0.8125 19.1562H14.875C14.875 17.913 14.3811 16.7208 13.5021 15.8417C12.623 14.9626 11.4307 14.4688 10.1875 14.4688Z" fill="#FCBC04"/>
<path d="M14.875 19.1563H0.8125C0.812929 18.1324 1.1486 17.1368 1.76821 16.3216C2.38782 15.5065 3.25729 14.9166 4.24374 14.6422C4.48735 15.5347 5.01758 16.3223 5.75277 16.8839C6.48796 17.4455 7.38735 17.7498 8.31248 17.75H14.6593C14.803 18.2049 14.8757 18.6792 14.875 19.1563Z" fill="#E59730"/>
<path d="M14.875 25.7188C14.875 26.216 14.6775 26.6929 14.3258 27.0446C13.9742 27.3962 13.4973 27.5938 13 27.5938H2.6875C2.19022 27.5938 1.71331 27.3962 1.36167 27.0446C1.01004 26.6929 0.8125 26.216 0.8125 25.7188V24.7812H1.81094C1.91421 25.1838 2.14857 25.5405 2.47704 25.7952C2.80551 26.0498 3.2094 26.1878 3.625 26.1875H13.4688C13.9762 26.1895 14.4703 26.0248 14.875 25.7188Z" fill="#E59730"/>
<path d="M14.4063 19.1562V19.4281C14.4083 19.4946 14.4004 19.5609 14.3829 19.625H2.07821C2.21377 19.8019 2.38872 19.9447 2.58914 20.0422L2.94539 20.225C3.15686 20.3291 3.38939 20.3832 3.62508 20.3832C3.86076 20.3832 4.0933 20.3291 4.30476 20.225L5.05945 19.8453C5.19598 19.776 5.34694 19.7398 5.50007 19.7398C5.6532 19.7398 5.80416 19.776 5.94069 19.8453L6.93444 20.3422C7.07097 20.4115 7.22194 20.4477 7.37506 20.4477C7.52819 20.4477 7.67916 20.4115 7.81569 20.3422L8.80943 19.8453C8.94596 19.776 9.09693 19.7398 9.25006 19.7398C9.40318 19.7398 9.55415 19.776 9.69068 19.8453L10.6844 20.3422C10.821 20.4115 10.9719 20.4477 11.1251 20.4477C11.2782 20.4477 11.4291 20.4115 11.5657 20.3422L12.5594 19.8453C12.696 19.776 12.8469 19.7398 13 19.7398C13.1532 19.7398 13.3041 19.776 13.4407 19.8453C13.5759 19.913 13.7249 19.9486 13.8761 19.9495C14.0273 19.9503 14.1766 19.9162 14.3125 19.85C14.2321 20.0194 14.1053 20.1626 13.9469 20.263C13.7884 20.3634 13.6048 20.4168 13.4172 20.4172C13.2629 20.4172 13.1106 20.3819 12.9719 20.3141C12.8354 20.2447 12.6844 20.2086 12.5313 20.2086C12.3782 20.2086 12.2272 20.2447 12.0907 20.3141L11.0969 20.8109C10.9604 20.8803 10.8094 20.9164 10.6563 20.9164C10.5032 20.9164 10.3522 20.8803 10.2157 20.8109L9.22193 20.3141C9.0854 20.2447 8.93444 20.2086 8.78131 20.2086C8.62818 20.2086 8.47722 20.2447 8.34069 20.3141L7.34694 20.8109C7.21041 20.8803 7.05944 20.9164 6.90632 20.9164C6.75319 20.9164 6.60222 20.8803 6.46569 20.8109L5.47195 20.3141C5.33542 20.2447 5.18445 20.2086 5.03132 20.2086C4.8782 20.2086 4.72723 20.2447 4.5907 20.3141L3.83601 20.6937C3.62455 20.7978 3.39201 20.8519 3.15633 20.8519C2.92065 20.8519 2.68811 20.7978 2.47664 20.6937L2.1204 20.5109C1.86775 20.3863 1.65516 20.1933 1.50682 19.9538C1.35848 19.7143 1.28036 19.438 1.28134 19.1562H14.4063Z" fill="#A1D51C"/>
<path d="M8.78125 16.8125C9.04013 16.8125 9.25 16.6026 9.25 16.3438C9.25 16.0849 9.04013 15.875 8.78125 15.875C8.52237 15.875 8.3125 16.0849 8.3125 16.3438C8.3125 16.6026 8.52237 16.8125 8.78125 16.8125Z" fill="#F9E109"/>
<path d="M6.90625 16.3438C7.16513 16.3438 7.375 16.1339 7.375 15.875C7.375 15.6161 7.16513 15.4062 6.90625 15.4062C6.64737 15.4062 6.4375 15.6161 6.4375 15.875C6.4375 16.1339 6.64737 16.3438 6.90625 16.3438Z" fill="#F9E109"/>
<path d="M5.5 17.2812C5.75888 17.2812 5.96875 17.0714 5.96875 16.8125C5.96875 16.5536 5.75888 16.3438 5.5 16.3438C5.24112 16.3438 5.03125 16.5536 5.03125 16.8125C5.03125 17.0714 5.24112 17.2812 5.5 17.2812Z" fill="#F9E109"/>
<path d="M12.5312 17.2812C12.7901 17.2812 13 17.0714 13 16.8125C13 16.5536 12.7901 16.3438 12.5312 16.3438C12.2724 16.3438 12.0625 16.5536 12.0625 16.8125C12.0625 17.0714 12.2724 17.2812 12.5312 17.2812Z" fill="#F9E109"/>
<path d="M3.625 16.8125C3.88388 16.8125 4.09375 16.6026 4.09375 16.3438C4.09375 16.0849 3.88388 15.875 3.625 15.875C3.36612 15.875 3.15625 16.0849 3.15625 16.3438C3.15625 16.6026 3.36612 16.8125 3.625 16.8125Z" fill="#FCBC04"/>
<path d="M10.6562 16.3438C10.9151 16.3438 11.125 16.1339 11.125 15.875C11.125 15.6161 10.9151 15.4062 10.6562 15.4062C10.3974 15.4062 10.1875 15.6161 10.1875 15.875C10.1875 16.1339 10.3974 16.3438 10.6562 16.3438Z" fill="#F9E109"/>
<path d="M5.92643 17.0094C5.88196 17.107 5.80536 17.1865 5.70941 17.2344C5.61346 17.2824 5.50396 17.2959 5.3992 17.2729C5.29444 17.2499 5.20075 17.1916 5.13376 17.1078C5.06678 17.024 5.03055 16.9198 5.03113 16.8125C5.03189 16.7359 5.05102 16.6606 5.08691 16.5929C5.12279 16.5252 5.1744 16.4671 5.23738 16.4235H5.24207C5.44783 16.6435 5.67736 16.84 5.92643 17.0094Z" fill="#FCBC04"/>
</svg>
